<?xml version="1.0" encoding="UTF-8"?>
<!-- Generator: Adobe Illustrator 16.0.4, SVG Export Plug-In . SVG Version: 6.00 Build 0)  -->
<svg xmlns="http://www.w3.org/2000/svg" xmlns:xlink="http://www.w3.org/1999/xlink" version="1.1" id="Layer_1" x="0px" y="0px" width="434px" height="54px" viewBox="-155.5 -73.5 434 54" enable-background="new -155.5 -73.5 434 54" xml:space="preserve">
<g>
	<path fill="#87A0BA" d="M-149.994-37.208c1.21,1.949,3.066,2.923,5.568,2.923c0.984,0,1.869-0.175,2.656-0.522   c0.785-0.35,1.407-0.879,1.865-1.59s0.688-1.572,0.688-2.584c0-1.094-0.256-2.074-0.77-2.943c-0.512-0.867-1.203-1.66-2.07-2.379   c-0.869-0.717-2.027-1.548-3.477-2.491c-1.695-1.094-3.039-2.044-4.03-2.851c-0.991-0.807-1.812-1.764-2.461-2.871   s-0.974-2.393-0.974-3.855c0-1.695,0.431-3.12,1.292-4.275s2.003-2.014,3.425-2.574s2.987-0.841,4.696-0.841   c1.012,0,1.89,0.075,2.636,0.226c0.744,0.15,1.366,0.338,1.865,0.564c0.499,0.225,1.043,0.509,1.631,0.851   c0.67,0.396,1.142,0.595,1.415,0.595c0.26,0,0.458-0.146,0.595-0.441c0.137-0.293,0.246-0.762,0.328-1.404h0.964   c-0.137,1.873-0.205,5.065-0.205,9.577h-0.964c-0.096-1.518-0.435-2.96-1.016-4.327s-1.395-2.478-2.439-3.332   c-1.047-0.854-2.273-1.282-3.682-1.282c-0.889,0-1.686,0.171-2.389,0.513c-0.705,0.342-1.252,0.838-1.641,1.486   c-0.391,0.65-0.585,1.405-0.585,2.267c0,1.395,0.417,2.536,1.251,3.425s1.921,1.788,3.261,2.697s2.242,1.521,2.707,1.835   c1.641,1.094,2.939,2.044,3.896,2.851s1.736,1.75,2.338,2.83s0.902,2.331,0.902,3.753c0,1.791-0.465,3.302-1.395,4.532   s-2.181,2.15-3.753,2.758c-1.572,0.608-3.329,0.913-5.271,0.913c-1.572,0-2.875-0.141-3.907-0.421   c-1.032-0.279-1.985-0.659-2.86-1.138c-0.602-0.396-1.073-0.595-1.415-0.595c-0.26,0-0.458,0.147-0.595,0.441   s-0.246,0.762-0.328,1.404h-0.964c0.109-1.75,0.164-5.53,0.164-11.341h0.964C-151.897-41.695-151.204-39.155-149.994-37.208z"/>
	<path fill="#87A0BA" d="M-112.946-36.593c-0.711,1.006-1.634,1.826-2.769,2.461c-1.135,0.637-2.461,0.954-3.979,0.954   c-1.873,0-3.545-0.41-5.014-1.23c-1.471-0.82-2.633-2.078-3.486-3.773c-0.855-1.695-1.282-3.808-1.282-6.337   c0-2.475,0.447-4.576,1.343-6.307c0.896-1.729,2.126-3.035,3.691-3.916c1.565-0.883,3.36-1.323,5.384-1.323   c1.039,0,2.017,0.112,2.933,0.339c0.916,0.225,1.688,0.529,2.317,0.912c0.725,0.451,1.288,1.016,1.692,1.691   c0.402,0.678,0.604,1.426,0.604,2.246c0,0.998-0.312,1.809-0.933,2.43c-0.623,0.623-1.419,0.934-2.39,0.934   c-0.984,0-1.768-0.28-2.349-0.841s-0.871-1.312-0.871-2.256c0-0.848,0.267-1.579,0.8-2.194s1.189-1.032,1.969-1.251   c-0.219-0.301-0.558-0.544-1.015-0.728c-0.459-0.186-0.961-0.277-1.508-0.277c-1.135,0-2.102,0.428-2.902,1.281   c-0.799,0.855-1.404,2.031-1.814,3.527c-0.41,1.498-0.615,3.21-0.615,5.138c0,2.051,0.26,3.705,0.779,4.963s1.196,2.153,2.03,2.687   s1.757,0.8,2.769,0.8c0.957,0,1.921-0.249,2.892-0.749c0.971-0.498,1.846-1.384,2.625-2.655l0.697,0.246   C-111.702-38.674-112.235-37.597-112.946-36.593z"/>
	<path fill="#87A0BA" d="M-93.771-56.064c2.174,0,3.712,0.54,4.614,1.62c0.465,0.547,0.807,1.244,1.025,2.092   s0.328,1.976,0.328,3.384v11.3c0,0.779,0.085,1.388,0.257,1.825c0.17,0.438,0.447,0.745,0.83,0.923s0.916,0.267,1.6,0.267v0.882   c-2.953-0.109-4.806-0.164-5.558-0.164c-0.957,0-2.775,0.055-5.455,0.164v-0.882c0.561,0,1.005-0.089,1.333-0.267   s0.567-0.485,0.718-0.923s0.226-1.046,0.226-1.825v-13.063c0-1.148-0.188-2.017-0.564-2.604s-1.056-0.882-2.04-0.882   c-0.766,0-1.466,0.209-2.103,0.626c-0.635,0.417-1.138,0.991-1.507,1.723s-0.554,1.555-0.554,2.471v11.73   c0,0.779,0.072,1.388,0.215,1.825c0.145,0.438,0.376,0.745,0.697,0.923s0.77,0.267,1.344,0.267v0.882   c-2.68-0.109-4.409-0.164-5.188-0.164c-0.971,0-2.905,0.055-5.804,0.164v-0.882c0.67,0,1.196-0.089,1.579-0.267   s0.663-0.485,0.841-0.923s0.267-1.046,0.267-1.825v-23.912c0-1.299-0.202-2.238-0.604-2.82c-0.404-0.581-1.098-0.871-2.082-0.871   v-0.882c0.889,0.082,1.757,0.123,2.604,0.123c2.461,0,4.505-0.198,6.132-0.595v14.458C-99.363-54.766-97.08-56.064-93.771-56.064z"/>
	<path fill="#87A0BA" d="M-67.993-56.064c1.148,0,2.088,0.137,2.82,0.41c0.73,0.273,1.329,0.677,1.794,1.21s0.8,1.224,1.005,2.071   s0.308,1.982,0.308,3.404v11.3c0,0.779,0.089,1.388,0.267,1.825s0.458,0.745,0.841,0.923s0.909,0.267,1.579,0.267v0.882   c-2.789-0.109-4.635-0.164-5.537-0.164c-0.861,0-2.687,0.055-5.476,0.164v-0.882c0.574,0,1.025-0.089,1.354-0.267   s0.563-0.485,0.708-0.923c0.143-0.438,0.215-1.046,0.215-1.825v-13.063c0-1.148-0.188-2.017-0.564-2.604s-1.056-0.882-2.04-0.882   c-0.766,0-1.466,0.212-2.103,0.636c-0.635,0.424-1.138,1.009-1.507,1.754s-0.554,1.568-0.554,2.471v11.689   c0,0.779,0.075,1.388,0.226,1.825s0.39,0.745,0.718,0.923s0.772,0.267,1.333,0.267v0.882c-2.57-0.109-4.307-0.164-5.209-0.164   c-0.861,0-2.796,0.055-5.804,0.164v-0.882c0.67,0,1.199-0.089,1.59-0.267c0.389-0.178,0.669-0.485,0.84-0.923   s0.257-1.046,0.257-1.825v-13.248c0-1.299-0.198-2.238-0.595-2.82c-0.396-0.58-1.094-0.871-2.092-0.871v-0.882   c0.889,0.082,1.757,0.123,2.604,0.123c2.475,0,4.519-0.191,6.132-0.574v3.773C-73.612-54.766-71.315-56.064-67.993-56.064z"/>
	<path fill="#87A0BA" d="M-48.839-35.844c0.178,0.438,0.458,0.745,0.841,0.923s0.909,0.267,1.579,0.267v0.882   c-2.789-0.109-4.648-0.164-5.578-0.164c-0.889,0-2.837,0.055-5.845,0.164v-0.882c0.67,0,1.199-0.089,1.59-0.267   c0.389-0.178,0.669-0.485,0.84-0.923s0.257-1.046,0.257-1.825v-13.248c0-1.299-0.198-2.238-0.595-2.82   c-0.396-0.58-1.094-0.871-2.092-0.871v-0.882c0.889,0.082,1.757,0.123,2.604,0.123c2.475,0,4.519-0.191,6.132-0.574v18.272   C-49.105-36.89-49.017-36.281-48.839-35.844z M-49.607-65.457c0.689,0.574,1.035,1.36,1.035,2.358c0,1.012-0.346,1.805-1.035,2.379   c-0.691,0.574-1.617,0.861-2.779,0.861c-1.189,0-2.126-0.287-2.81-0.861s-1.025-1.367-1.025-2.379c0-0.998,0.342-1.784,1.025-2.358   s1.62-0.861,2.81-0.861C-51.225-66.318-50.299-66.031-49.607-65.457z"/>
	<path fill="#87A0BA" d="M-31.1-55.449v0.841h-4.963v16.939c0,0.834,0.15,1.426,0.451,1.773c0.301,0.35,0.766,0.523,1.395,0.523   c1.189,0,2.14-0.841,2.851-2.522l0.718,0.39c-1.053,2.885-2.967,4.327-5.742,4.327c-1.846,0-3.247-0.479-4.204-1.436   c-0.588-0.574-0.988-1.302-1.199-2.185c-0.213-0.881-0.318-2.102-0.318-3.66v-14.15h-3.527v-0.841h3.527v-5.578   c2.311,0,4.327-0.451,6.05-1.354v6.932H-31.1z"/>
	<path fill="#87A0BA" d="M-20.497-34.408c1.805,0,3.322-0.591,4.553-1.774c1.23-1.182,1.948-3.093,2.153-5.731h0.882   c0,3.773,0.062,6.542,0.185,8.306c-2.283-0.109-4.977-0.164-8.08-0.164c-2.721,0-5.633,0.068-8.736,0.205l10.5-21.287h-2.338   c-3.992,0-6.18,2.502-6.562,7.506h-0.882c0-3.965-0.055-6.733-0.164-8.306c2.283,0.109,4.97,0.164,8.06,0.164   c2.748,0,5.66-0.068,8.736-0.205l-10.5,21.287H-20.497z"/>
	<path fill="#87A0BA" d="M-1.087-35.844c0.171,0.438,0.451,0.745,0.842,0.923c0.389,0.178,0.919,0.267,1.589,0.267v0.882   c-2.898-0.109-4.771-0.164-5.619-0.164c-0.971,0-2.905,0.055-5.804,0.164v-0.882c0.67,0,1.196-0.089,1.579-0.267   s0.663-0.485,0.841-0.923s0.267-1.046,0.267-1.825v-23.953c0-1.299-0.202-2.238-0.604-2.82c-0.404-0.581-1.098-0.871-2.082-0.871   v-0.882c0.889,0.082,1.757,0.123,2.604,0.123c2.461,0,4.505-0.198,6.132-0.595v28.998C-1.343-36.89-1.258-36.281-1.087-35.844z"/>
	<path fill="#87A0BA" d="M9.629-44.785c0,1.859,0.26,3.401,0.779,4.624c0.52,1.225,1.192,2.12,2.02,2.688s1.713,0.851,2.656,0.851   c2.311,0,4.163-1.121,5.558-3.363l0.738,0.246c-0.355,1.148-0.906,2.219-1.651,3.21s-1.688,1.798-2.83,2.42   c-1.142,0.621-2.443,0.933-3.906,0.933c-1.928,0-3.619-0.41-5.076-1.23c-1.455-0.82-2.591-2.067-3.404-3.743   c-0.813-1.674-1.22-3.756-1.22-6.244c0-2.543,0.438-4.686,1.312-6.43c0.875-1.742,2.085-3.052,3.63-3.927s3.329-1.312,5.353-1.312   c5.264,0,7.896,3.104,7.896,9.311H9.69C9.649-46.344,9.629-45.688,9.629-44.785z M15.525-53.009   c-0.486-1.449-1.221-2.174-2.205-2.174c-0.998,0-1.829,0.619-2.492,1.855c-0.663,1.238-1.069,3.162-1.22,5.773h6.583   C16.232-49.741,16.01-51.56,15.525-53.009z"/>
	<path fill="#87A0BA" d="M34.699-54.946c1.006-0.745,2.144-1.118,3.415-1.118c0.848,0,1.559,0.185,2.133,0.554   s0.998,0.845,1.271,1.426s0.41,1.206,0.41,1.876c0,1.039-0.301,1.887-0.902,2.543s-1.395,0.984-2.379,0.984   c-0.957,0-1.712-0.242-2.267-0.728c-0.553-0.485-0.83-1.139-0.83-1.959c0-1.34,0.615-2.434,1.846-3.281   c-0.178-0.041-0.349-0.062-0.513-0.062c-0.191,0-0.41,0.034-0.656,0.103c-0.711,0.109-1.36,0.448-1.948,1.016   s-1.05,1.247-1.385,2.04s-0.502,1.565-0.502,2.317V-38.1c0,1.299,0.314,2.198,0.943,2.696c0.629,0.5,1.634,0.749,3.015,0.749v0.882   c-3.5-0.109-5.729-0.164-6.686-0.164c-0.889,0-2.892,0.055-6.009,0.164v-0.882c0.67,0,1.199-0.089,1.59-0.267   c0.389-0.178,0.669-0.485,0.84-0.923s0.257-1.046,0.257-1.825v-13.248c0-1.299-0.198-2.238-0.595-2.82   c-0.396-0.58-1.094-0.871-2.092-0.871v-0.882c0.889,0.082,1.757,0.123,2.604,0.123c2.475,0,4.519-0.191,6.132-0.574v3.896   C32.926-53.234,33.695-54.201,34.699-54.946z"/>
</g>
<g>
	<path fill="#87A0BA" d="M88.167-56.371c0-1.914-0.103-4.293-0.308-7.137c2.557,0.082,6.884,0.123,12.981,0.123   s10.411-0.041,12.94-0.123c-0.205,2.844-0.308,5.223-0.308,7.137c0,1.203,0.048,2.27,0.144,3.199h-0.964   c-0.465-2.338-1.032-4.187-1.702-5.547s-1.474-2.338-2.41-2.934c-0.937-0.594-2.074-0.892-3.414-0.892h-0.964v23.994   c0,1.162,0.119,2.01,0.358,2.543s0.663,0.896,1.271,1.087s1.562,0.294,2.861,0.308v0.841c-3.527-0.082-6.187-0.123-7.978-0.123   c-1.764,0-4.327,0.041-7.69,0.123v-0.841c1.312-0.014,2.272-0.116,2.881-0.308s1.029-0.554,1.262-1.087s0.349-1.381,0.349-2.543   v-23.994h-0.923c-1.354,0-2.499,0.294-3.436,0.882c-0.936,0.588-1.739,1.562-2.409,2.922c-0.67,1.361-1.244,3.217-1.723,5.568   h-0.964C88.119-54.102,88.167-55.168,88.167-56.371z"/>
	<path fill="#87A0BA" d="M125.583-54.238c-0.553-0.67-1.418-1.005-2.594-1.005c-0.547,0-1.094,0.086-1.641,0.257   s-0.998,0.427-1.354,0.769c0.779,0.26,1.388,0.667,1.825,1.22c0.438,0.555,0.656,1.248,0.656,2.082   c0,0.574-0.141,1.091-0.421,1.549s-0.68,0.82-1.199,1.086c-0.52,0.268-1.114,0.4-1.784,0.4c-0.902,0-1.624-0.308-2.163-0.923   c-0.541-0.615-0.811-1.388-0.811-2.317c0-1.449,0.779-2.625,2.338-3.527c1.709-0.943,3.842-1.415,6.398-1.415   c2.871,0,4.915,0.629,6.132,1.887c0.588,0.588,0.984,1.319,1.189,2.194s0.308,2.099,0.308,3.671v11.423   c0,0.684,0.064,1.166,0.195,1.445c0.129,0.281,0.358,0.421,0.687,0.421c0.451,0,0.971-0.239,1.559-0.718l0.431,0.718   c-0.643,0.533-1.34,0.923-2.092,1.169s-1.654,0.369-2.707,0.369c-1.422,0-2.447-0.314-3.076-0.943s-0.943-1.449-0.943-2.461   c-0.684,1.135-1.579,1.986-2.687,2.553c-1.107,0.567-2.29,0.852-3.548,0.852c-1.6,0-2.881-0.42-3.846-1.262   c-0.963-0.84-1.445-2.013-1.445-3.517c0-1.463,0.479-2.673,1.436-3.63s2.44-1.805,4.45-2.543c0.219-0.082,0.93-0.352,2.133-0.811   c1.203-0.457,2.071-0.926,2.604-1.404s0.8-1.005,0.8-1.579v-3.261C126.414-52.652,126.138-53.568,125.583-54.238z M125.542-45.574   c-0.403,0.322-0.98,0.715-1.732,1.18c-0.889,0.615-1.586,1.31-2.092,2.082s-0.759,1.732-0.759,2.881   c0,1.094,0.239,1.911,0.718,2.451s1.107,0.81,1.887,0.81c1.107,0,2.058-0.574,2.851-1.723v-8.613   C126.236-46.206,125.945-45.895,125.542-45.574z"/>
	<path fill="#87A0BA" d="M156.264-38.088c1.045,0.704,1.568,1.849,1.568,3.435c0,1.436-0.451,2.826-1.354,4.173   s-2.27,2.451-4.102,3.312s-4.067,1.292-6.706,1.292c-2.051,0-3.771-0.161-5.157-0.481c-1.389-0.322-2.424-0.756-3.107-1.303   s-1.025-1.169-1.025-1.866c0-0.752,0.283-1.312,0.852-1.682c0.566-0.369,1.493-0.759,2.778-1.169s2.194-0.807,2.728-1.189h-0.984   c-1.162,0-2.235-0.28-3.22-0.841s-1.477-1.579-1.477-3.056c0-0.807,0.167-1.534,0.503-2.184c0.334-0.649,0.888-1.271,1.66-1.867   c0.772-0.594,1.815-1.206,3.128-1.835c-1.436-0.492-2.557-1.241-3.363-2.245c-0.807-1.006-1.21-2.273-1.21-3.805   c0-2.215,0.823-3.879,2.471-4.994c1.647-1.113,3.832-1.671,6.553-1.671c1.121,0,2.16,0.096,3.117,0.287   c-0.041-0.711,0.014-1.415,0.164-2.112c0.137-1.162,0.533-2.095,1.189-2.799s1.586-1.057,2.789-1.057   c0.889,0,1.623,0.236,2.205,0.707c0.58,0.473,0.871,1.091,0.871,1.856c0,0.711-0.277,1.296-0.83,1.753   c-0.555,0.459-1.248,0.688-2.082,0.688c-0.848,0-1.511-0.198-1.989-0.595s-0.848-0.984-1.107-1.764   c-0.301,0.506-0.513,1.224-0.636,2.153c-0.014,0.137-0.021,0.342-0.021,0.615c0,0.301,0.007,0.526,0.021,0.677   c1.668,0.424,2.974,1.159,3.917,2.204c0.943,1.047,1.415,2.396,1.415,4.051c0,1.49-0.387,2.734-1.158,3.732   c-0.773,0.998-1.836,1.74-3.189,2.225c-1.354,0.486-2.912,0.729-4.676,0.729c-1.326,0-2.536-0.137-3.63-0.41   c-0.807,0.465-1.405,0.889-1.794,1.271c-0.391,0.383-0.585,0.82-0.585,1.312c0,0.93,0.561,1.395,1.682,1.395h9.7   C153.854-39.145,155.217-38.792,156.264-38.088z M142.461-31.946c-0.253,0.643-0.379,1.224-0.379,1.743   c0,1.162,0.441,2.054,1.322,2.676c0.883,0.622,2.014,0.934,3.395,0.934c1.135,0,2.19-0.209,3.168-0.625   c0.978-0.418,1.757-1.022,2.338-1.815s0.872-1.716,0.872-2.769c0-0.602-0.178-1.046-0.533-1.333s-0.991-0.431-1.907-0.431h-7.198   C143.073-33.129,142.714-32.589,142.461-31.946z M144.707-53.972c-0.479,0.902-0.718,2.427-0.718,4.573s0.239,3.671,0.718,4.573   s1.176,1.354,2.092,1.354c0.93,0,1.631-0.451,2.102-1.354c0.473-0.902,0.708-2.427,0.708-4.573s-0.235-3.671-0.708-4.573   c-0.471-0.902-1.172-1.354-2.102-1.354C145.883-55.325,145.186-54.874,144.707-53.972z"/>
	<path fill="#87A0BA" d="M166.24-44.784c0,1.859,0.26,3.401,0.779,4.624c0.52,1.225,1.192,2.12,2.02,2.688s1.713,0.851,2.656,0.851   c2.311,0,4.163-1.121,5.558-3.363l0.738,0.246c-0.355,1.148-0.906,2.219-1.651,3.21s-1.688,1.798-2.83,2.42   c-1.142,0.621-2.443,0.933-3.906,0.933c-1.928,0-3.619-0.41-5.076-1.23c-1.455-0.82-2.591-2.067-3.404-3.743   c-0.813-1.674-1.22-3.756-1.22-6.244c0-2.543,0.438-4.686,1.312-6.43c0.875-1.742,2.085-3.052,3.63-3.927s3.329-1.312,5.353-1.312   c5.264,0,7.896,3.104,7.896,9.311h-11.792C166.261-46.343,166.24-45.687,166.24-44.784z M172.137-53.008   c-0.486-1.449-1.221-2.174-2.205-2.174c-0.998,0-1.829,0.619-2.492,1.855c-0.663,1.238-1.069,3.162-1.22,5.773h6.583   C172.844-49.74,172.621-51.559,172.137-53.008z"/>
	<path fill="#87A0BA" d="M191.055-55.038c1.121-0.684,2.42-1.025,3.896-1.025s2.785,0.403,3.928,1.21   c1.141,0.807,2.036,2.023,2.686,3.65s0.975,3.63,0.975,6.009c0,2.789-0.428,5.079-1.281,6.87c-0.855,1.791-2.004,3.097-3.445,3.917   c-1.443,0.82-3.073,1.23-4.892,1.23c-1.941,0-3.507-0.492-4.696-1.477c-0.15-0.014-0.369-0.021-0.656-0.021   c-0.916,0-1.809,0.147-2.676,0.441c-0.869,0.294-1.562,0.673-2.082,1.138l-0.636-0.39c0.191-0.711,0.287-1.49,0.287-2.338V-61.58   c0-1.299-0.202-2.238-0.604-2.82c-0.404-0.58-1.098-0.871-2.082-0.871v-0.882c0.875,0.082,1.743,0.123,2.604,0.123   c2.461,0,4.505-0.198,6.132-0.595v14.561C189.086-53.363,189.934-54.354,191.055-55.038z M191.629-34.059   c3.049,0,4.573-3.514,4.573-10.541c0-3.445-0.317-5.916-0.954-7.414c-0.635-1.496-1.562-2.245-2.778-2.245   c-0.916,0-1.747,0.328-2.491,0.984c-0.746,0.656-1.234,1.545-1.467,2.666v15.422C189.428-34.435,190.467-34.059,191.629-34.059z"/>
	<path fill="#87A0BA" d="M226.646-35.525c0.402,0.582,1.097,0.872,2.081,0.872v0.882c-0.875-0.082-1.743-0.123-2.604-0.123   c-2.461,0-4.505,0.198-6.132,0.595v-3.794c-1.271,2.611-3.527,3.917-6.768,3.917c-2.092,0-3.616-0.547-4.573-1.641   c-0.465-0.52-0.797-1.21-0.994-2.071c-0.199-0.861-0.298-1.989-0.298-3.384v-10.644c0-1.285-0.202-2.222-0.604-2.81   c-0.404-0.588-1.098-0.882-2.082-0.882v-0.882c0.889,0.082,1.757,0.123,2.604,0.123c2.447,0,4.491-0.191,6.132-0.574v17.391   c0,1.162,0.174,2.04,0.523,2.636c0.348,0.594,1.008,0.892,1.979,0.892c0.738,0,1.418-0.216,2.041-0.646   c0.621-0.432,1.117-1.019,1.486-1.764s0.554-1.569,0.554-2.472v-11.013c0-1.285-0.202-2.222-0.604-2.81   c-0.404-0.588-1.098-0.882-2.082-0.882v-0.882c0.889,0.082,1.757,0.123,2.604,0.123c2.447,0,4.491-0.191,6.132-0.574v17.596   C226.041-37.046,226.242-36.105,226.646-35.525z"/>
	<path fill="#87A0BA" d="M247.615-36.592c-0.711,1.006-1.634,1.826-2.769,2.461c-1.135,0.637-2.461,0.954-3.979,0.954   c-1.873,0-3.545-0.41-5.014-1.23c-1.471-0.82-2.633-2.078-3.486-3.773c-0.855-1.695-1.282-3.808-1.282-6.337   c0-2.475,0.447-4.576,1.343-6.307c0.896-1.729,2.126-3.035,3.691-3.916c1.565-0.883,3.36-1.323,5.384-1.323   c1.039,0,2.017,0.112,2.933,0.339c0.916,0.225,1.688,0.529,2.317,0.912c0.725,0.451,1.288,1.016,1.692,1.691   c0.402,0.678,0.604,1.426,0.604,2.246c0,0.998-0.312,1.809-0.933,2.43c-0.623,0.623-1.419,0.934-2.39,0.934   c-0.984,0-1.768-0.28-2.349-0.841s-0.871-1.312-0.871-2.256c0-0.848,0.267-1.579,0.8-2.194s1.189-1.032,1.969-1.251   c-0.219-0.301-0.558-0.544-1.015-0.728c-0.459-0.186-0.961-0.277-1.508-0.277c-1.135,0-2.102,0.428-2.902,1.281   c-0.799,0.855-1.404,2.031-1.814,3.527c-0.41,1.498-0.615,3.21-0.615,5.138c0,2.051,0.26,3.705,0.779,4.963s1.196,2.153,2.03,2.687   s1.757,0.8,2.769,0.8c0.957,0,1.921-0.249,2.892-0.749c0.971-0.498,1.846-1.384,2.625-2.655l0.697,0.246   C248.859-38.673,248.326-37.596,247.615-36.592z"/>
	<path fill="#87A0BA" d="M266.79-56.063c2.174,0,3.712,0.54,4.614,1.62c0.465,0.547,0.807,1.244,1.025,2.092   s0.328,1.976,0.328,3.384v11.3c0,0.779,0.085,1.388,0.257,1.825c0.17,0.438,0.447,0.745,0.83,0.923s0.916,0.267,1.6,0.267v0.882   c-2.953-0.109-4.806-0.164-5.558-0.164c-0.957,0-2.775,0.055-5.455,0.164v-0.882c0.561,0,1.005-0.089,1.333-0.267   s0.567-0.485,0.718-0.923s0.226-1.046,0.226-1.825v-13.063c0-1.148-0.188-2.017-0.564-2.604s-1.056-0.882-2.04-0.882   c-0.766,0-1.466,0.209-2.103,0.626c-0.635,0.417-1.138,0.991-1.507,1.723s-0.554,1.555-0.554,2.471v11.73   c0,0.779,0.072,1.388,0.215,1.825c0.145,0.438,0.376,0.745,0.697,0.923s0.77,0.267,1.344,0.267v0.882   c-2.68-0.109-4.409-0.164-5.188-0.164c-0.971,0-2.905,0.055-5.804,0.164v-0.882c0.67,0,1.196-0.089,1.579-0.267   s0.663-0.485,0.841-0.923s0.267-1.046,0.267-1.825V-61.58c0-1.299-0.202-2.238-0.604-2.82c-0.404-0.58-1.098-0.871-2.082-0.871   v-0.882c0.889,0.082,1.757,0.123,2.604,0.123c2.461,0,4.505-0.198,6.132-0.595v14.458C261.198-54.765,263.481-56.063,266.79-56.063   z"/>
</g>
<g>
	<path fill="#87A0BA" d="M64.766-69.385l-2.652,6.25l-11.435,9.423c-0.462,0.381-0.729,0.95-0.729,1.549l-0.003,28.102   c-0.003,0.208,0.029,0.412,0.092,0.604c0.156,0.499,0.51,0.927,0.988,1.177c0.665,0.345,1.468,0.292,2.081-0.139l23.007-16.134   c0.492-0.345,0.802-0.889,0.847-1.491l1.136-14.716l3.622-5.807c0.299-0.474,0.382-1.051,0.232-1.592   c-0.146-0.537-0.512-0.994-1.01-1.251l-13.402-6.973c-0.497-0.258-1.08-0.298-1.605-0.108C65.408-70.299,64.981-69.9,64.766-69.385   L64.766-69.385z M57.524-30.421l8.444-16.246c0.514-0.983,0.128-2.197-0.855-2.708c-0.981-0.511-2.194-0.129-2.705,0.854   l-8.446,16.246l0.004-18.94l10.006-8.25l10.055,5.23l-0.995,12.938L57.524-30.421z M77.162-60.85l-1.754,2.807l-9.087-4.726   l1.294-3.047L77.162-60.85z M77.162-60.85"/>
</g>
<g>
	<path fill="#87A0BA" d="M39.333-21.75H-152.25c-1.104,0-2-0.784-2-1.75s0.896-1.75,2-1.75H39.333c1.104,0,2,0.784,2,1.75   S40.438-21.75,39.333-21.75z"/>
</g>
</svg>